<svg width="25" height="24" viewBox="0 0 25 24" fill="none" xmlns="http://www.w3.org/2000/svg">
    <mask id="mask0_19_622" style="mask-type:luminance" maskUnits="userSpaceOnUse" x="4" y="4" width="17" height="16">
        <path d="M20.5 4H4.5V20H20.5V4Z" fill="white"/>
    </mask>
    <g mask="url(#mask0_19_622)">
        <path d="M4.5 12C4.5 9.87827 5.34285 7.84344 6.84315 6.34315C8.34344 4.84285 10.3783 4 12.5 4C14.6217 4 16.6566 4.84285 18.1569 6.34315C19.6571 7.84344 20.5 9.87827 20.5 12C20.5 14.1217 19.6571 16.1566 18.1569 17.6569C16.6566 19.1571 14.6217 20 12.5 20C10.3783 20 8.34344 19.1571 6.84315 17.6569C5.34285 16.1566 4.5 14.1217 4.5 12ZM12.5 5.5C10.7761 5.5 9.12279 6.18482 7.90381 7.40381C6.68482 8.62279 6 10.2761 6 12C6 13.7239 6.68482 15.3772 7.90381 16.5962C9.12279 17.8152 10.7761 18.5 12.5 18.5C14.2239 18.5 15.8772 17.8152 17.0962 16.5962C18.3152 15.3772 19 13.7239 19 12C19 10.2761 18.3152 8.62279 17.0962 7.40381C15.8772 6.18482 14.2239 5.5 12.5 5.5ZM11.42 10.085C11.3312 10.263 11.1762 10.3983 10.9876 10.4613C10.7989 10.5244 10.593 10.5098 10.415 10.421C10.237 10.3322 10.1017 10.1762 10.0386 9.98759C9.97564 9.79893 9.99015 9.59296 10.079 9.415C10.248 9.076 10.515 8.714 10.928 8.438C11.345 8.16 11.869 8 12.5 8C13.0877 7.99598 13.6613 8.17994 14.137 8.525C14.64 8.902 15 9.49 15 10.25C15 10.698 14.885 11.08 14.671 11.4C14.466 11.707 14.201 11.913 13.979 12.062C13.87 12.134 13.759 12.2 13.666 12.257L13.66 12.261C13.572 12.3122 13.4853 12.3656 13.4 12.421C13.2929 12.4839 13.1991 12.5671 13.124 12.666C13.0127 12.8291 12.8415 12.9417 12.6476 12.9794C12.4538 13.017 12.2529 12.9767 12.0885 12.8672C11.9242 12.7576 11.8098 12.5877 11.77 12.3943C11.7302 12.2008 11.7683 11.9995 11.876 11.834C12.06 11.57 12.296 11.345 12.568 11.173C12.671 11.106 12.775 11.041 12.881 10.978L12.888 10.974C12.988 10.913 13.07 10.864 13.146 10.813C13.2532 10.7499 13.3473 10.6667 13.423 10.568C13.46 10.514 13.5 10.427 13.5 10.25C13.5038 10.1475 13.4818 10.0458 13.436 9.95405C13.3902 9.86232 13.3221 9.78356 13.238 9.725C13.0213 9.57528 12.7634 9.49665 12.5 9.5C12.131 9.5 11.905 9.59 11.76 9.687C11.6137 9.78748 11.4964 9.92476 11.42 10.085ZM13.5 15C13.5 15.2652 13.3946 15.5196 13.2071 15.7071C13.0196 15.8946 12.7652 16 12.5 16C12.2348 16 11.9804 15.8946 11.7929 15.7071C11.6054 15.5196 11.5 15.2652 11.5 15C11.5 14.7348 11.6054 14.4804 11.7929 14.2929C11.9804 14.1054 12.2348 14 12.5 14C12.7652 14 13.0196 14.1054 13.2071 14.2929C13.3946 14.4804 13.5 14.7348 13.5 15Z" fill="#9797A5"/>
    </g>
</svg>
