<svg width="25" height="25" viewBox="0 0 25 25" fill="none" xmlns="http://www.w3.org/2000/svg">
    <path d="M14.9987 5.73454H7.4987V19.0679H17.4987V8.23454H14.9987V5.73454ZM7.4987 4.06787H15.832L19.1654 7.4012V19.0679C19.1654 19.5099 18.9898 19.9338 18.6772 20.2464C18.3646 20.5589 17.9407 20.7345 17.4987 20.7345H7.4987C7.05667 20.7345 6.63275 20.5589 6.32019 20.2464C6.00763 19.9338 5.83203 19.5099 5.83203 19.0679V5.73454C5.83203 5.29251 6.00763 4.86858 6.32019 4.55602C6.63275 4.24346 7.05667 4.06787 7.4987 4.06787ZM9.16536 11.5679H15.832V13.2345H9.16536V11.5679ZM9.16536 14.9012H15.832V16.5679H9.16536V14.9012Z" fill="#9797A5"/>
</svg>
