<svg width="32" height="32" viewBox="0 0 32 32" fill="none" xmlns="http://www.w3.org/2000/svg">
    <rect y="0.5" width="32" height="31.5" rx="7" fill="#FEF0F0"/>
    <path d="M22.5848 12.5321C22.3614 12.0268 22.0392 11.5689 21.6364 11.184C21.2332 10.798 20.7579 10.4913 20.2362 10.2805C19.6953 10.061 19.1151 9.94865 18.5293 9.94996C17.7076 9.94996 16.9058 10.1698 16.2091 10.5849C16.0424 10.6842 15.884 10.7933 15.734 10.9121C15.584 10.7933 15.4257 10.6842 15.259 10.5849C14.5622 10.1698 13.7605 9.94996 12.9387 9.94996C12.347 9.94996 11.7736 10.0607 11.2318 10.2805C10.7085 10.4921 10.2367 10.7966 9.83169 11.184C9.4283 11.5685 9.10607 12.0265 8.88324 12.5321C8.65155 13.0579 8.5332 13.6164 8.5332 14.1911C8.5332 14.7332 8.64655 15.2982 8.87158 15.8729C9.05993 16.3531 9.32996 16.8513 9.675 17.3544C10.2217 18.1505 10.9735 18.9808 11.9069 19.8225C13.4538 21.2178 14.9856 22.1816 15.0506 22.2207L15.4457 22.4681C15.6207 22.5772 15.8457 22.5772 16.0207 22.4681L16.4158 22.2207C16.4808 22.18 18.011 21.2178 19.5595 19.8225C20.4929 18.9808 21.2447 18.1505 21.7914 17.3544C22.1364 16.8513 22.4081 16.3531 22.5948 15.8729C22.8198 15.2982 22.9332 14.7332 22.9332 14.1911C22.9349 13.6164 22.8165 13.0579 22.5848 12.5321V12.5321Z" fill="#FF8585"/>
</svg>
