<svg width="11" height="16" viewBox="0 0 11 16" fill="none" xmlns="http://www.w3.org/2000/svg">
    <path d="M5.37175 13.574C5.78535 13.5763 6.18292 13.7348 6.48481 14.0176C6.7867 14.3004 6.97078 14.6868 7.00004 15.0994C7.00257 15.1336 7.01794 15.1656 7.04308 15.189C7.06822 15.2124 7.10131 15.2254 7.13559 15.2254L9.33089 15.2388C9.36716 15.2389 9.40201 15.2248 9.4277 15.1993C9.45354 15.1737 9.46814 15.1391 9.4684 15.1028L9.4876 11.6057C9.48835 11.4766 9.45904 11.3493 9.4019 11.2335C9.34455 11.1177 9.31489 10.9902 9.31536 10.8609C9.31584 10.7317 9.34649 10.6043 9.40483 10.489C9.46316 10.3739 9.49402 10.2467 9.49478 10.1176L9.54517 1.15004C9.5454 1.11374 9.53113 1.07894 9.50566 1.05314C9.48019 1.02734 9.44544 1.01279 9.4092 1.01256L7.21515 1.00049C7.18087 1.00011 7.14764 1.01281 7.12225 1.0359C7.09686 1.059 7.08115 1.09082 7.07827 1.12499C7.04463 1.53748 6.85652 1.92197 6.55146 2.20163C6.24641 2.48129 5.84697 2.63542 5.43322 2.63309C5.01939 2.63082 4.62172 2.47231 4.31978 2.18934C4.01783 1.90636 3.83391 1.51979 3.80486 1.10697C3.80228 1.0728 3.78694 1.04076 3.76177 1.01741C3.73668 0.993994 3.7036 0.981005 3.66933 0.980925L1.47528 0.968855C1.43898 0.968706 1.40415 0.982905 1.37834 1.00843C1.3526 1.03388 1.33802 1.06856 1.33777 1.10485L1.28814 10.0736C1.28754 10.2027 1.31698 10.3302 1.37407 10.446C1.43151 10.5618 1.46115 10.6894 1.4606 10.8186C1.46013 10.9479 1.42951 11.0752 1.37125 11.1906C1.31288 11.3056 1.28218 11.4327 1.28143 11.5617L1.26219 15.0589C1.26204 15.0952 1.27624 15.13 1.30169 15.1557C1.32722 15.1815 1.36189 15.1961 1.39819 15.1964L3.59225 15.2085C3.6265 15.2087 3.65974 15.1961 3.68513 15.173C3.71051 15.1499 3.72623 15.1181 3.72912 15.0839C3.76237 14.6716 3.94997 14.287 4.25457 14.0071C4.5591 13.7271 4.9581 13.5725 5.37175 13.574Z" stroke="#9797A5" stroke-miterlimit="10"/>
</svg>
