<svg width="24" height="24" viewBox="0 0 24 24" fill="none" xmlns="http://www.w3.org/2000/svg">
    <path fill-rule="evenodd" clip-rule="evenodd" d="M0 11.7635C0 5.38649 5.4948 0 12 0C18.5052 0 24 5.38649 24 11.7635C24 15.516 22.0896 18.9133 19.2 21.0848V21.1742H19.0776C17.076 22.6388 14.6244 23.5269 12 23.5269C9.3756 23.5269 6.924 22.6388 4.9224 21.1742H4.8V21.0848C1.9104 18.9133 0 15.5148 0 11.7635ZM8.54816 17.9228C7.90985 18.4262 7.46564 19.1278 7.2888 19.912C8.6904 20.7084 10.3008 21.1742 12 21.1742C13.6992 21.1742 15.3096 20.7084 16.7112 19.912C16.5342 19.128 16.0899 18.4264 15.4516 17.923C14.8134 17.4197 14.0192 17.1445 13.2 17.1429H10.8C9.98076 17.1443 9.18647 17.4194 8.54816 17.9228ZM16.5213 15.7768C17.5053 16.4187 18.2743 17.331 18.732 18.3992C20.4924 16.6829 21.6 14.3232 21.6 11.7635C21.6 6.66165 17.2044 2.35269 12 2.35269C6.7956 2.35269 2.4 6.66165 2.4 11.7635C2.4 14.3232 3.5076 16.6829 5.268 18.3992C5.72573 17.331 6.49472 16.4187 7.47872 15.7768C8.46272 15.1348 9.61801 14.7917 10.8 14.7902H13.2C14.382 14.7917 15.5373 15.1348 16.5213 15.7768ZM7.19987 9.41083C7.19987 6.72876 9.26387 4.70544 11.9999 4.70544C14.7359 4.70544 16.7999 6.72876 16.7999 9.41083C16.7999 12.0929 14.7359 14.1162 11.9999 14.1162C9.26387 14.1162 7.19987 12.0929 7.19987 9.41083ZM9.59987 9.41083C9.59987 10.7966 10.5863 11.7635 11.9999 11.7635C13.4135 11.7635 14.3999 10.7966 14.3999 9.41083C14.3999 8.02509 13.4135 7.05814 11.9999 7.05814C10.5863 7.05814 9.59987 8.02509 9.59987 9.41083Z" fill="#9B9B9B"/>
</svg>
