<svg width="25" height="25" viewBox="0 0 25 25" fill="none" xmlns="http://www.w3.org/2000/svg">
    <mask id="mask0_19_610" style="mask-type:luminance" maskUnits="userSpaceOnUse" x="4" y="4" width="17" height="17">
        <path d="M20.5 4.80005H4.5V20.8H20.5V4.80005Z" fill="white"/>
    </mask>
    <g mask="url(#mask0_19_610)">
        <path d="M7.92746 12.7997V9.79394C7.93638 9.20312 8.0618 8.61987 8.29653 8.0776C8.53125 7.53533 8.87067 7.04471 9.29534 6.63385C9.72 6.22299 10.2216 5.89996 10.7713 5.68327C11.321 5.46658 11.9081 5.36049 12.4989 5.37108C13.0897 5.36049 13.6768 5.46658 14.2265 5.68327C14.7762 5.89996 15.2778 6.22299 15.7024 6.63385C16.1271 7.04471 16.4665 7.53533 16.7012 8.0776C16.936 8.61987 17.0614 9.20312 17.0703 9.79394V12.7997M14.7846 18.7997C15.3908 18.7997 15.9722 18.5589 16.4008 18.1302C16.8295 17.7016 17.0703 17.1202 17.0703 16.514V13.9426M14.7846 18.7997C14.7846 19.1786 14.6341 19.5419 14.3662 19.8099C14.0983 20.0778 13.7349 20.2283 13.356 20.2283H11.6417C11.2629 20.2283 10.8995 20.0778 10.6316 19.8099C10.3637 19.5419 10.2132 19.1786 10.2132 18.7997C10.2132 18.4208 10.3637 18.0575 10.6316 17.7896C10.8995 17.5216 11.2629 17.3711 11.6417 17.3711H13.356C13.7349 17.3711 14.0983 17.5216 14.3662 17.7896C14.6341 18.0575 14.7846 18.4208 14.7846 18.7997ZM6.21317 11.0854H7.35603C7.50758 11.0854 7.65292 11.1456 7.76009 11.2528C7.86725 11.36 7.92746 11.5053 7.92746 11.6568V15.0854C7.92746 15.237 7.86725 15.3823 7.76009 15.4895C7.65292 15.5966 7.50758 15.6568 7.35603 15.6568H6.21317C5.91007 15.6568 5.61937 15.5364 5.40505 15.3221C5.19072 15.1078 5.07031 14.8171 5.07031 14.514V12.2283C5.07031 11.9252 5.19072 11.6345 5.40505 11.4202C5.61937 11.2058 5.91007 11.0854 6.21317 11.0854ZM18.7846 15.6568H17.6417C17.4902 15.6568 17.3448 15.5966 17.2377 15.4895C17.1305 15.3823 17.0703 15.237 17.0703 15.0854V11.6568C17.0703 11.5053 17.1305 11.36 17.2377 11.2528C17.3448 11.1456 17.4902 11.0854 17.6417 11.0854H18.7846C19.0877 11.0854 19.3784 11.2058 19.5927 11.4202C19.807 11.6345 19.9275 11.9252 19.9275 12.2283V14.514C19.9275 14.8171 19.807 15.1078 19.5927 15.3221C19.3784 15.5364 19.0877 15.6568 18.7846 15.6568Z" stroke="#9797A5" stroke-width="1.5" stroke-linecap="round" stroke-linejoin="round"/>
    </g>
</svg>
