<svg width="134" height="37" viewBox="0 0 134 37" fill="none" xmlns="http://www.w3.org/2000/svg">
    <path d="M2.51953 2.70117L2.57812 9.15625C2.59115 10.7057 2.64648 11.8158 2.74414 12.4863C2.84831 13.1504 3.01432 13.6549 3.24219 14H0.917969C1.17839 13.668 1.36719 12.8997 1.48438 11.6953C1.60156 10.4844 1.66016 8.72005 1.66016 6.40234C1.66016 4.35156 1.60482 3.02018 1.49414 2.4082C1.38997 1.78971 1.19792 1.37956 0.917969 1.17773H2.99805C3.37565 1.17773 3.79557 1.5293 4.25781 2.23242C4.375 2.41471 4.4694 2.55794 4.54102 2.66211C4.91862 3.21549 5.5013 4.09115 6.28906 5.28906C8.11198 8.06901 9.57682 10.2142 10.6836 11.7246L10.7031 6.11914C10.7031 4.32227 10.6641 3.10807 10.5859 2.47656C10.5078 1.83854 10.3711 1.4056 10.1758 1.17773H12.0801C11.8848 1.36003 11.748 1.84831 11.6699 2.64258C11.5983 3.43034 11.5625 5.02865 11.5625 7.4375V9.99609V14.0586H10.2637C9.82096 13.3555 8.71745 11.7279 6.95312 9.17578C5.1888 6.6237 3.71094 4.46549 2.51953 2.70117ZM17.0801 7.70117H21.123L19.2383 2.53516L17.0801 7.70117ZM12.627 14C13.2324 13.2708 13.8411 12.3561 14.4531 11.2559C15.0651 10.1556 15.7096 8.8112 16.3867 7.22266C16.9531 5.90104 17.4186 4.7194 17.7832 3.67773C18.1543 2.63607 18.3398 2.01107 18.3398 1.80273C18.3398 1.69857 18.3268 1.59766 18.3008 1.5C18.2747 1.39583 18.2357 1.28841 18.1836 1.17773H20.6641C21.6341 4.4069 22.5488 7.13151 23.4082 9.35156C24.2676 11.5716 25.0065 13.1211 25.625 14H23.4375L21.4258 8.44336H16.7578L15.8984 10.543L15.8789 10.5918C15.3451 11.8743 15.0781 12.8053 15.0781 13.3848C15.0781 13.4759 15.0846 13.5736 15.0977 13.6777C15.1172 13.7754 15.1432 13.8828 15.1758 14H12.627ZM25.3711 14C28.1445 10.4388 30.1172 7.86068 31.2891 6.26562C32.4609 4.67057 33.4538 3.24805 34.2676 1.99805H31.4062C29.7331 1.99805 28.5742 2.07943 27.9297 2.24219C27.2852 2.39844 26.7708 2.67188 26.3867 3.0625L26.6699 1.13867C26.8001 1.15169 26.9368 1.16146 27.0801 1.16797C27.2233 1.17448 27.4219 1.17773 27.6758 1.17773H28.4082H33.6523C35.0651 1.17773 35.9603 1.17448 36.3379 1.16797C36.722 1.16146 36.9499 1.15169 37.0215 1.13867L36.5625 1.75391C32.4089 7.13802 29.6061 10.9401 28.1543 13.1602C29.5215 13.1992 30.4655 13.2253 30.9863 13.2383C31.5072 13.2513 31.9076 13.2578 32.1875 13.2578C33.8346 13.2578 34.9935 13.1504 35.6641 12.9355C36.3411 12.7142 36.8783 12.3366 37.2754 11.8027L36.8945 14H25.3711ZM41.3086 1.99805C41.2565 2.30404 41.2174 2.78581 41.1914 3.44336C41.1654 4.0944 41.1523 4.98633 41.1523 6.11914V9.03906C41.1523 9.89844 41.1589 10.6211 41.1719 11.207C41.1914 11.7865 41.2174 12.1901 41.25 12.418C41.3021 12.75 41.4811 12.9746 41.7871 13.0918C42.0996 13.2025 42.6953 13.2578 43.5742 13.2578C45.2018 13.2578 46.4616 12.7695 47.3535 11.793C48.2454 10.8099 48.6914 9.42643 48.6914 7.64258C48.6914 5.77409 48.2227 4.33529 47.2852 3.32617C46.3477 2.31055 45.0163 1.80273 43.291 1.80273C42.9329 1.80273 42.5911 1.81901 42.2656 1.85156C41.9401 1.88411 41.6211 1.93294 41.3086 1.99805ZM38.9355 14C39.1178 13.8047 39.2448 13.3555 39.3164 12.6523C39.3945 11.9492 39.4336 10.4453 39.4336 8.14062V7.32031C39.4336 4.80729 39.3945 3.20573 39.3164 2.51562C39.2448 1.81901 39.1178 1.37305 38.9355 1.17773H40.3906C40.9766 1.17773 41.7611 1.13867 42.7441 1.06055C43.7272 0.982422 44.4238 0.943359 44.834 0.943359C46.6699 0.943359 48.112 1.48372 49.1602 2.56445C50.2083 3.63867 50.7324 5.11654 50.7324 6.99805C50.7324 9.18555 50.1042 10.9173 48.8477 12.1934C47.5911 13.4629 45.8854 14.0977 43.7305 14.0977C43.2552 14.0977 42.6335 14.0814 41.8652 14.0488C41.1035 14.0163 40.5794 14 40.293 14H38.9355ZM54.9707 7.70117H59.0137L57.1289 2.53516L54.9707 7.70117ZM50.5176 14C51.123 13.2708 51.7318 12.3561 52.3438 11.2559C52.9557 10.1556 53.6003 8.8112 54.2773 7.22266C54.8438 5.90104 55.3092 4.7194 55.6738 3.67773C56.0449 2.63607 56.2305 2.01107 56.2305 1.80273C56.2305 1.69857 56.2174 1.59766 56.1914 1.5C56.1654 1.39583 56.1263 1.28841 56.0742 1.17773H58.5547C59.5247 4.4069 60.4395 7.13151 61.2988 9.35156C62.1582 11.5716 62.8971 13.1211 63.5156 14H61.3281L59.3164 8.44336H54.6484L53.7891 10.543L53.7695 10.5918C53.2357 11.8743 52.9688 12.8053 52.9688 13.3848C52.9688 13.4759 52.9753 13.5736 52.9883 13.6777C53.0078 13.7754 53.0339 13.8828 53.0664 14H50.5176ZM65 1.17773C65.7812 1.17773 66.6536 1.15495 67.6172 1.10938C68.5807 1.0638 69.1569 1.04102 69.3457 1.04102C70.3548 1.04102 71.1198 1.25911 71.6406 1.69531C72.1615 2.125 72.4219 2.75977 72.4219 3.59961C72.4219 4.41992 72.1647 5.15234 71.6504 5.79688C71.1361 6.4349 70.3809 6.96224 69.3848 7.37891L72.2461 11.3633C72.7214 12.0208 73.1576 12.571 73.5547 13.0137C73.9583 13.4499 74.3197 13.7786 74.6387 14H72.7441C72.4902 14 72.2949 13.9674 72.1582 13.9023C72.028 13.8307 71.888 13.6908 71.7383 13.4824L68.3203 8.67773C68.0729 8.32617 67.8418 8.09505 67.627 7.98438C67.4121 7.8737 67.1354 7.81836 66.7969 7.81836H66.6406V9.03906C66.6406 10.9987 66.6764 12.265 66.748 12.8379C66.8262 13.4043 66.9564 13.7917 67.1387 14H64.4238C64.6061 13.8047 64.7331 13.3555 64.8047 12.6523C64.8828 11.9492 64.9219 10.4453 64.9219 8.14062V7.32031C64.9219 4.80729 64.8828 3.20573 64.8047 2.51562C64.7331 1.81901 64.6061 1.37305 64.4238 1.17773H65ZM66.6406 7.03711C66.7578 7.06315 66.8848 7.08268 67.0215 7.0957C67.1582 7.10872 67.3112 7.11523 67.4805 7.11523C68.4505 7.11523 69.196 6.86133 69.7168 6.35352C70.2376 5.8457 70.498 5.11979 70.498 4.17578C70.498 3.38802 70.2995 2.80208 69.9023 2.41797C69.5052 2.03385 68.8997 1.8418 68.0859 1.8418C67.7669 1.8418 67.5163 1.84831 67.334 1.86133C67.1582 1.86784 66.9889 1.88086 66.8262 1.90039C66.7611 2.18685 66.7122 2.64258 66.6797 3.26758C66.6536 3.88607 66.6406 4.76497 66.6406 5.9043V6.11914V7.03711Z" fill="black"/>
    <path d="M1.554 34V25.726C1.554 25.0727 1.74533 24.5453 2.128 24.144C2.51067 23.7427 3.06133 23.542 3.78 23.542C4.06 23.542 4.33067 23.5793 4.592 23.654C4.85333 23.7287 5.07267 23.8453 5.25 24.004L4.914 24.746C4.774 24.6247 4.61067 24.536 4.424 24.48C4.23733 24.4147 4.03667 24.382 3.822 24.382C3.402 24.382 3.08 24.4987 2.856 24.732C2.632 24.9653 2.52 25.3107 2.52 25.768V26.888L2.548 27.35V34H1.554ZM0.238 27.476V26.65H4.788V27.476H0.238ZM6.132 34V23.612H7.126V34H6.132ZM12.9133 34.07C12.2039 34.07 11.5646 33.9113 10.9953 33.594C10.4353 33.2673 9.99192 32.824 9.66525 32.264C9.33858 31.6947 9.17525 31.046 9.17525 30.318C9.17525 29.5807 9.33858 28.932 9.66525 28.372C9.99192 27.812 10.4353 27.3733 10.9953 27.056C11.5553 26.7387 12.1946 26.58 12.9133 26.58C13.6413 26.58 14.2853 26.7387 14.8453 27.056C15.4146 27.3733 15.8579 27.812 16.1753 28.372C16.5019 28.932 16.6653 29.5807 16.6653 30.318C16.6653 31.046 16.5019 31.6947 16.1753 32.264C15.8579 32.824 15.4146 33.2673 14.8453 33.594C14.2759 33.9113 13.6319 34.07 12.9133 34.07ZM12.9133 33.188C13.4453 33.188 13.9166 33.0713 14.3273 32.838C14.7379 32.5953 15.0599 32.2593 15.2933 31.83C15.5359 31.3913 15.6573 30.8873 15.6573 30.318C15.6573 29.7393 15.5359 29.2353 15.2933 28.806C15.0599 28.3767 14.7379 28.0453 14.3273 27.812C13.9166 27.5693 13.4499 27.448 12.9273 27.448C12.4046 27.448 11.9379 27.5693 11.5273 27.812C11.1166 28.0453 10.7899 28.3767 10.5473 28.806C10.3046 29.2353 10.1833 29.7393 10.1833 30.318C10.1833 30.8873 10.3046 31.3913 10.5473 31.83C10.7899 32.2593 11.1166 32.5953 11.5273 32.838C11.9379 33.0713 12.3999 33.188 12.9133 33.188ZM19.9875 34L17.2155 26.65H18.1675L20.6875 33.468H20.2535L22.8435 26.65H23.6975L26.2595 33.468H25.8255L28.3875 26.65H29.2975L26.5115 34H25.5735L23.1095 27.588H23.4035L20.9255 34H19.9875ZM33.7111 34.07C32.9458 34.07 32.2738 33.9113 31.6951 33.594C31.1165 33.2673 30.6638 32.824 30.3371 32.264C30.0105 31.6947 29.8471 31.046 29.8471 30.318C29.8471 29.59 30.0011 28.946 30.3091 28.386C30.6265 27.826 31.0558 27.3873 31.5971 27.07C32.1478 26.7433 32.7638 26.58 33.4451 26.58C34.1358 26.58 34.7471 26.7387 35.2791 27.056C35.8205 27.364 36.2451 27.8027 36.5531 28.372C36.8611 28.932 37.0151 29.5807 37.0151 30.318C37.0151 30.3647 37.0105 30.416 37.0011 30.472C37.0011 30.5187 37.0011 30.57 37.0011 30.626H30.6031V29.884H36.4691L36.0771 30.178C36.0771 29.646 35.9605 29.1747 35.7271 28.764C35.5031 28.344 35.1951 28.0173 34.8031 27.784C34.4111 27.5507 33.9585 27.434 33.4451 27.434C32.9411 27.434 32.4885 27.5507 32.0871 27.784C31.6858 28.0173 31.3731 28.344 31.1491 28.764C30.9251 29.184 30.8131 29.6647 30.8131 30.206V30.36C30.8131 30.92 30.9345 31.4147 31.1771 31.844C31.4291 32.264 31.7745 32.5953 32.2131 32.838C32.6611 33.0713 33.1698 33.188 33.7391 33.188C34.1871 33.188 34.6025 33.1087 34.9851 32.95C35.3771 32.7913 35.7131 32.5487 35.9931 32.222L36.5531 32.866C36.2265 33.258 35.8158 33.5567 35.3211 33.762C34.8358 33.9673 34.2991 34.07 33.7111 34.07ZM39.0383 34V26.65H39.9903V28.652L39.8923 28.302C40.0977 27.742 40.443 27.3173 40.9283 27.028C41.4137 26.7293 42.0157 26.58 42.7343 26.58V27.546C42.697 27.546 42.6597 27.546 42.6223 27.546C42.585 27.5367 42.5477 27.532 42.5103 27.532C41.7357 27.532 41.129 27.77 40.6903 28.246C40.2517 28.7127 40.0323 29.38 40.0323 30.248V34H39.0383ZM46.6041 34.07C45.9975 34.07 45.4235 33.986 44.8821 33.818C44.3408 33.6407 43.9161 33.4213 43.6081 33.16L44.0561 32.376C44.3548 32.6 44.7375 32.796 45.2041 32.964C45.6708 33.1227 46.1608 33.202 46.6741 33.202C47.3741 33.202 47.8781 33.0947 48.1861 32.88C48.4941 32.656 48.6481 32.362 48.6481 31.998C48.6481 31.7273 48.5595 31.5173 48.3821 31.368C48.2141 31.2093 47.9901 31.0927 47.7101 31.018C47.4301 30.934 47.1175 30.864 46.7721 30.808C46.4268 30.752 46.0815 30.6867 45.7361 30.612C45.4001 30.5373 45.0921 30.43 44.8121 30.29C44.5321 30.1407 44.3035 29.94 44.1261 29.688C43.9581 29.436 43.8741 29.1 43.8741 28.68C43.8741 28.2787 43.9861 27.9193 44.2101 27.602C44.4341 27.2847 44.7608 27.0373 45.1901 26.86C45.6288 26.6733 46.1608 26.58 46.7861 26.58C47.2621 26.58 47.7381 26.6453 48.2141 26.776C48.6901 26.8973 49.0821 27.0607 49.3901 27.266L48.9561 28.064C48.6295 27.84 48.2795 27.6813 47.9061 27.588C47.5328 27.4853 47.1595 27.434 46.7861 27.434C46.1235 27.434 45.6335 27.5507 45.3161 27.784C45.0081 28.008 44.8541 28.2973 44.8541 28.652C44.8541 28.932 44.9381 29.1513 45.1061 29.31C45.2835 29.4687 45.5121 29.5947 45.7921 29.688C46.0815 29.772 46.3941 29.842 46.7301 29.898C47.0755 29.954 47.4161 30.024 47.7521 30.108C48.0975 30.1827 48.4101 30.29 48.6901 30.43C48.9795 30.5607 49.2081 30.752 49.3761 31.004C49.5535 31.2467 49.6421 31.5687 49.6421 31.97C49.6421 32.3993 49.5208 32.7727 49.2781 33.09C49.0448 33.398 48.6995 33.6407 48.2421 33.818C47.7941 33.986 47.2481 34.07 46.6041 34.07ZM57.7201 34.084C57.0855 34.084 56.5208 33.9813 56.0261 33.776C55.5315 33.5613 55.1395 33.2673 54.8501 32.894C54.5701 32.5207 54.4301 32.0867 54.4301 31.592C54.4301 31.172 54.5235 30.7893 54.7101 30.444C54.8968 30.0893 55.1955 29.744 55.6061 29.408C56.0261 29.0627 56.5815 28.7033 57.2721 28.33C57.8601 28.0033 58.3175 27.7233 58.6441 27.49C58.9801 27.2473 59.2181 27.0187 59.3581 26.804C59.4981 26.58 59.5681 26.342 59.5681 26.09C59.5681 25.726 59.4421 25.432 59.1901 25.208C58.9475 24.984 58.5975 24.872 58.1401 24.872C57.6455 24.872 57.2628 24.998 56.9921 25.25C56.7215 25.4927 56.5861 25.81 56.5861 26.202C56.5861 26.398 56.6141 26.5847 56.6701 26.762C56.7355 26.9393 56.8521 27.1353 57.0201 27.35C57.1975 27.5647 57.4401 27.8353 57.7481 28.162L62.9281 33.496L62.3541 34.154L56.9501 28.596C56.6235 28.2507 56.3621 27.952 56.1661 27.7C55.9795 27.4387 55.8488 27.1913 55.7741 26.958C55.6995 26.7247 55.6621 26.4773 55.6621 26.216C55.6621 25.796 55.7601 25.432 55.9561 25.124C56.1615 24.8067 56.4508 24.564 56.8241 24.396C57.1975 24.2187 57.6361 24.13 58.1401 24.13C58.5975 24.13 58.9941 24.2093 59.3301 24.368C59.6755 24.5173 59.9415 24.7367 60.1281 25.026C60.3241 25.3153 60.4221 25.6653 60.4221 26.076C60.4221 26.4307 60.3335 26.762 60.1561 27.07C59.9881 27.378 59.7081 27.6813 59.3161 27.98C58.9241 28.2693 58.3921 28.596 57.7201 28.96C57.1321 29.2867 56.6655 29.5853 56.3201 29.856C55.9841 30.1267 55.7461 30.3927 55.6061 30.654C55.4661 30.906 55.3961 31.186 55.3961 31.494C55.3961 31.8487 55.4941 32.1613 55.6901 32.432C55.8955 32.6933 56.1755 32.8987 56.5301 33.048C56.8941 33.188 57.3095 33.258 57.7761 33.258C58.4295 33.258 59.0128 33.1227 59.5261 32.852C60.0395 32.5813 60.4688 32.1707 60.8141 31.62C61.1688 31.0693 61.4255 30.3787 61.5841 29.548L62.3821 29.8C62.2048 30.7333 61.9015 31.5173 61.4721 32.152C61.0428 32.7867 60.5108 33.2673 59.8761 33.594C59.2415 33.9207 58.5228 34.084 57.7201 34.084ZM71.9534 34.07C71.3188 34.07 70.7448 33.9253 70.2314 33.636C69.7181 33.3373 69.3074 32.9127 68.9994 32.362C68.7008 31.802 68.5514 31.1207 68.5514 30.318C68.5514 29.5153 68.7008 28.8387 68.9994 28.288C69.2981 27.728 69.7041 27.3033 70.2174 27.014C70.7308 26.7247 71.3094 26.58 71.9534 26.58C72.6534 26.58 73.2788 26.7387 73.8294 27.056C74.3894 27.364 74.8281 27.8027 75.1454 28.372C75.4628 28.932 75.6214 29.5807 75.6214 30.318C75.6214 31.0647 75.4628 31.718 75.1454 32.278C74.8281 32.838 74.3894 33.2767 73.8294 33.594C73.2788 33.9113 72.6534 34.07 71.9534 34.07ZM68.1594 36.716V26.65H69.1114V28.862L69.0134 30.332L69.1534 31.816V36.716H68.1594ZM71.8834 33.188C72.4061 33.188 72.8728 33.0713 73.2834 32.838C73.6941 32.5953 74.0208 32.2593 74.2634 31.83C74.5061 31.3913 74.6274 30.8873 74.6274 30.318C74.6274 29.7487 74.5061 29.2493 74.2634 28.82C74.0208 28.3907 73.6941 28.0547 73.2834 27.812C72.8728 27.5693 72.4061 27.448 71.8834 27.448C71.3608 27.448 70.8894 27.5693 70.4694 27.812C70.0588 28.0547 69.7321 28.3907 69.4894 28.82C69.2561 29.2493 69.1394 29.7487 69.1394 30.318C69.1394 30.8873 69.2561 31.3913 69.4894 31.83C69.7321 32.2593 70.0588 32.5953 70.4694 32.838C70.8894 33.0713 71.3608 33.188 71.8834 33.188ZM82.2127 34V32.376L82.1707 32.11V29.394C82.1707 28.7687 81.9934 28.288 81.6387 27.952C81.2934 27.616 80.7754 27.448 80.0847 27.448C79.6087 27.448 79.156 27.5273 78.7267 27.686C78.2974 27.8447 77.9334 28.0547 77.6347 28.316L77.1867 27.574C77.56 27.2567 78.008 27.014 78.5307 26.846C79.0534 26.6687 79.604 26.58 80.1827 26.58C81.1347 26.58 81.8674 26.818 82.3807 27.294C82.9034 27.7607 83.1647 28.4747 83.1647 29.436V34H82.2127ZM79.6787 34.07C79.128 34.07 78.6474 33.9813 78.2367 33.804C77.8354 33.6173 77.5274 33.3653 77.3127 33.048C77.098 32.7213 76.9907 32.348 76.9907 31.928C76.9907 31.5453 77.0794 31.2 77.2567 30.892C77.4434 30.5747 77.742 30.3227 78.1527 30.136C78.5727 29.94 79.1327 29.842 79.8327 29.842H82.3667V30.584H79.8607C79.1514 30.584 78.6567 30.71 78.3767 30.962C78.106 31.214 77.9707 31.5267 77.9707 31.9C77.9707 32.32 78.134 32.656 78.4607 32.908C78.7874 33.16 79.2447 33.286 79.8327 33.286C80.3927 33.286 80.8734 33.16 81.2747 32.908C81.6854 32.6467 81.984 32.2733 82.1707 31.788L82.3947 32.474C82.208 32.9593 81.8814 33.3467 81.4147 33.636C80.9574 33.9253 80.3787 34.07 79.6787 34.07ZM85.8645 34V26.65H86.8165V28.652L86.7185 28.302C86.9238 27.742 87.2692 27.3173 87.7545 27.028C88.2398 26.7293 88.8418 26.58 89.5605 26.58V27.546C89.5232 27.546 89.4858 27.546 89.4485 27.546C89.4112 27.5367 89.3738 27.532 89.3365 27.532C88.5618 27.532 87.9552 27.77 87.5165 28.246C87.0778 28.7127 86.8585 29.38 86.8585 30.248V34H85.8645ZM91.6517 34V25.726C91.6517 25.0727 91.843 24.5453 92.2257 24.144C92.6083 23.7427 93.159 23.542 93.8777 23.542C94.1577 23.542 94.4283 23.5793 94.6897 23.654C94.951 23.7287 95.1703 23.8453 95.3477 24.004L95.0117 24.746C94.8717 24.6247 94.7083 24.536 94.5217 24.48C94.335 24.4147 94.1343 24.382 93.9197 24.382C93.4997 24.382 93.1777 24.4987 92.9537 24.732C92.7297 24.9653 92.6177 25.3107 92.6177 25.768V26.888L92.6457 27.35V34H91.6517ZM90.3357 27.476V26.65H94.8857V27.476H90.3357ZM99.2658 34.07C98.6405 34.07 98.0945 33.9533 97.6278 33.72C97.1611 33.4867 96.7971 33.1367 96.5358 32.67C96.2838 32.2033 96.1578 31.62 96.1578 30.92V26.65H97.1518V30.808C97.1518 31.592 97.3431 32.1847 97.7258 32.586C98.1178 32.978 98.6638 33.174 99.3638 33.174C99.8771 33.174 100.32 33.0713 100.694 32.866C101.076 32.6513 101.366 32.3433 101.562 31.942C101.767 31.5407 101.87 31.06 101.87 30.5V26.65H102.864V34H101.912V31.984L102.066 32.348C101.832 32.8893 101.468 33.314 100.974 33.622C100.488 33.9207 99.9191 34.07 99.2658 34.07ZM114.818 26.58C115.415 26.58 115.933 26.6967 116.372 26.93C116.82 27.154 117.165 27.4993 117.408 27.966C117.66 28.4327 117.786 29.0207 117.786 29.73V34H116.792V29.828C116.792 29.0533 116.605 28.47 116.232 28.078C115.868 27.6767 115.35 27.476 114.678 27.476C114.174 27.476 113.735 27.5833 113.362 27.798C112.998 28.0033 112.713 28.3067 112.508 28.708C112.312 29.1 112.214 29.576 112.214 30.136V34H111.22V29.828C111.22 29.0533 111.033 28.47 110.66 28.078C110.287 27.6767 109.764 27.476 109.092 27.476C108.597 27.476 108.163 27.5833 107.79 27.798C107.417 28.0033 107.127 28.3067 106.922 28.708C106.726 29.1 106.628 29.576 106.628 30.136V34H105.634V26.65H106.586V28.638L106.432 28.288C106.656 27.756 107.015 27.3407 107.51 27.042C108.014 26.734 108.607 26.58 109.288 26.58C110.007 26.58 110.618 26.762 111.122 27.126C111.626 27.4807 111.953 28.0173 112.102 28.736L111.71 28.582C111.925 27.9847 112.303 27.504 112.844 27.14C113.395 26.7667 114.053 26.58 114.818 26.58ZM123.604 34.07C122.838 34.07 122.166 33.9113 121.588 33.594C121.009 33.2673 120.556 32.824 120.23 32.264C119.903 31.6947 119.74 31.046 119.74 30.318C119.74 29.59 119.894 28.946 120.202 28.386C120.519 27.826 120.948 27.3873 121.49 27.07C122.04 26.7433 122.656 26.58 123.338 26.58C124.028 26.58 124.64 26.7387 125.172 27.056C125.713 27.364 126.138 27.8027 126.446 28.372C126.754 28.932 126.908 29.5807 126.908 30.318C126.908 30.3647 126.903 30.416 126.894 30.472C126.894 30.5187 126.894 30.57 126.894 30.626H120.496V29.884H126.362L125.97 30.178C125.97 29.646 125.853 29.1747 125.62 28.764C125.396 28.344 125.088 28.0173 124.696 27.784C124.304 27.5507 123.851 27.434 123.338 27.434C122.834 27.434 122.381 27.5507 121.98 27.784C121.578 28.0173 121.266 28.344 121.042 28.764C120.818 29.184 120.706 29.6647 120.706 30.206V30.36C120.706 30.92 120.827 31.4147 121.07 31.844C121.322 32.264 121.667 32.5953 122.106 32.838C122.554 33.0713 123.062 33.188 123.632 33.188C124.08 33.188 124.495 33.1087 124.878 32.95C125.27 32.7913 125.606 32.5487 125.886 32.222L126.446 32.866C126.119 33.258 125.708 33.5567 125.214 33.762C124.728 33.9673 124.192 34.07 123.604 34.07ZM130.905 34.07C130.298 34.07 129.724 33.986 129.183 33.818C128.642 33.6407 128.217 33.4213 127.909 33.16L128.357 32.376C128.656 32.6 129.038 32.796 129.505 32.964C129.972 33.1227 130.462 33.202 130.975 33.202C131.675 33.202 132.179 33.0947 132.487 32.88C132.795 32.656 132.949 32.362 132.949 31.998C132.949 31.7273 132.86 31.5173 132.683 31.368C132.515 31.2093 132.291 31.0927 132.011 31.018C131.731 30.934 131.418 30.864 131.073 30.808C130.728 30.752 130.382 30.6867 130.037 30.612C129.701 30.5373 129.393 30.43 129.113 30.29C128.833 30.1407 128.604 29.94 128.427 29.688C128.259 29.436 128.175 29.1 128.175 28.68C128.175 28.2787 128.287 27.9193 128.511 27.602C128.735 27.2847 129.062 27.0373 129.491 26.86C129.93 26.6733 130.462 26.58 131.087 26.58C131.563 26.58 132.039 26.6453 132.515 26.776C132.991 26.8973 133.383 27.0607 133.691 27.266L133.257 28.064C132.93 27.84 132.58 27.6813 132.207 27.588C131.834 27.4853 131.46 27.434 131.087 27.434C130.424 27.434 129.934 27.5507 129.617 27.784C129.309 28.008 129.155 28.2973 129.155 28.652C129.155 28.932 129.239 29.1513 129.407 29.31C129.584 29.4687 129.813 29.5947 130.093 29.688C130.382 29.772 130.695 29.842 131.031 29.898C131.376 29.954 131.717 30.024 132.053 30.108C132.398 30.1827 132.711 30.29 132.991 30.43C133.28 30.5607 133.509 30.752 133.677 31.004C133.854 31.2467 133.943 31.5687 133.943 31.97C133.943 32.3993 133.822 32.7727 133.579 33.09C133.346 33.398 133 33.6407 132.543 33.818C132.095 33.986 131.549 34.07 130.905 34.07Z" fill="#9D9D9D"/>
</svg>
